<svg width="69" height="68" viewBox="0 0 69 68" fill="none" xmlns="http://www.w3.org/2000/svg">
<circle cx="34" cy="34" r="34" fill="#FBE0FE"/>
<path d="M27.5713 24.7144H40.4284" stroke="#B122C2" stroke-width="2" stroke-miterlimit="10" stroke-linecap="round" stroke-linejoin="round"/>
<path d="M34 38.2858H35.6071C35.6071 38.2858 40.4286 33.1965 40.4286 28.1072V24.7144H34V38.2858Z" fill="#B122C2"/>
<path d="M38.2858 43.2859H29.7144V41.8573C29.7144 41.068 30.4815 40.4287 31.4286 40.4287H36.5715C37.5186 40.4287 38.2858 41.068 38.2858 41.8573V43.2859Z" fill="#B122C2"/>
<path d="M29.7144 43.2859H38.2858" stroke="#B122C2" stroke-width="2" stroke-miterlimit="10" stroke-linecap="round" stroke-linejoin="round"/>
<path d="M38.8573 31.778C38.8573 31.778 39.7144 28.2859 41.8573 28.2859C43.041 28.2859 44.0001 29.2628 44.0001 30.4684C44.0001 33.524 35.4287 36.143 35.4287 36.143" stroke="#B122C2" stroke-width="2" stroke-miterlimit="10" stroke-linecap="round" stroke-linejoin="round"/>
<path d="M33.9999 38.2858H32.3927C32.3927 38.2858 27.5713 33.1965 27.5713 28.1072V24.7144H33.9999V38.2858Z" fill="#B122C2"/>
<path d="M29.1429 31.778C29.1429 31.778 28.2857 28.2859 26.1429 28.2859C24.9591 28.2859 24 29.2628 24 30.4684C24 33.524 32.5714 36.143 32.5714 36.143" stroke="#B122C2" stroke-width="2" stroke-miterlimit="10" stroke-linecap="round" stroke-linejoin="round"/>
</svg>
