<svg width="69" height="68" viewBox="0 0 69 68" fill="none" xmlns="http://www.w3.org/2000/svg">
<circle cx="34" cy="34" r="34" fill="#D5FFFA"/>
<path d="M22.4287 17.2856H45.5716" stroke="#0DBCA5" stroke-width="2" stroke-miterlimit="10" stroke-linecap="round" stroke-linejoin="round"/>
<path d="M34 41.7142H36.8929C36.8929 41.7142 45.5714 32.5535 45.5714 23.3928V17.2856H34V41.7142Z" fill="#0DBCA5"/>
<path d="M41.7142 50.7141H26.2856V48.1427C26.2856 46.722 27.6665 45.5713 29.3714 45.5713H38.6285C40.3334 45.5713 41.7142 46.722 41.7142 48.1427V50.7141Z" fill="#0DBCA5"/>
<path d="M26.2856 50.7141H41.7142" stroke="#0DBCA5" stroke-width="2" stroke-miterlimit="10" stroke-linecap="round" stroke-linejoin="round"/>
<path d="M42.7427 29.9998C42.7427 29.9998 44.2856 23.7141 48.1427 23.7141C50.2734 23.7141 51.9999 25.4725 51.9999 27.6427C51.9999 33.1427 36.5713 37.857 36.5713 37.857" stroke="#0DBCA5" stroke-width="2" stroke-miterlimit="10" stroke-linecap="round" stroke-linejoin="round"/>
<path d="M34.0001 41.7142H31.1073C31.1073 41.7142 22.4287 32.5535 22.4287 23.3928V17.2856H34.0001V41.7142Z" fill="#0DBCA5"/>
<path d="M25.2571 29.9998C25.2571 29.9998 23.7143 23.7141 19.8571 23.7141C17.7265 23.7141 16 25.4725 16 27.6427C16 33.1427 31.4286 37.857 31.4286 37.857" stroke="#0DBCA5" stroke-width="2" stroke-miterlimit="10" stroke-linecap="round" stroke-linejoin="round"/>
</svg>
