<svg width="22" height="22" viewBox="0 0 22 22" fill="none" xmlns="http://www.w3.org/2000/svg">
<path d="M4.57129 1.71436H17.4284" stroke="#F6990D" stroke-width="2" stroke-miterlimit="10" stroke-linecap="round" stroke-linejoin="round"/>
<path d="M11 15.2858H12.6071C12.6071 15.2858 17.4286 10.1965 17.4286 5.10721V1.71436H11V15.2858Z" fill="#F6990D"/>
<path d="M15.2858 20.2859H6.71436V18.8573C6.71436 18.068 7.4815 17.4287 8.42864 17.4287H13.5715C14.5186 17.4287 15.2858 18.068 15.2858 18.8573V20.2859Z" fill="#F6990D"/>
<path d="M6.71436 20.2859H15.2858" stroke="#F6990D" stroke-width="2" stroke-miterlimit="10" stroke-linecap="round" stroke-linejoin="round"/>
<path d="M15.8573 8.77795C15.8573 8.77795 16.7144 5.28589 18.8573 5.28589C20.041 5.28589 21.0001 6.26279 21.0001 7.46843C21.0001 10.524 12.4287 13.143 12.4287 13.143" stroke="#F6990D" stroke-width="2" stroke-miterlimit="10" stroke-linecap="round" stroke-linejoin="round"/>
<path d="M10.9999 15.2858H9.39272C9.39272 15.2858 4.57129 10.1965 4.57129 5.10721V1.71436H10.9999V15.2858Z" fill="#F6990D"/>
<path d="M6.14286 8.77795C6.14286 8.77795 5.28571 5.28589 3.14286 5.28589C1.95914 5.28589 1 6.26279 1 7.46843C1 10.524 9.57143 13.143 9.57143 13.143" stroke="#F6990D" stroke-width="2" stroke-miterlimit="10" stroke-linecap="round" stroke-linejoin="round"/>
</svg>
