<svg width="159" height="29" viewBox="0 0 159 29" fill="none" xmlns="http://www.w3.org/2000/svg">
<path d="M0 23.02V5.73999H5.76L10.56 22.396H8.472L13.272 5.73999H19.056V23.02H15.408V6.77199H16.032L11.352 23.02H7.536L2.904 6.91599H3.504V23.02H0Z" fill="url(#paint0_linear_0_80)"/>
<path d="M26.7253 23.26C25.3653 23.26 24.1813 22.996 23.1733 22.468C22.1653 21.924 21.3813 21.172 20.8213 20.212C20.2773 19.252 20.0053 18.148 20.0053 16.9C20.0053 15.636 20.2773 14.532 20.8213 13.588C21.3813 12.628 22.1573 11.884 23.1493 11.356C24.1413 10.812 25.2933 10.54 26.6053 10.54C27.8693 10.54 28.9653 10.796 29.8933 11.308C30.8213 11.82 31.5413 12.532 32.0533 13.444C32.5653 14.356 32.8213 15.428 32.8213 16.66C32.8213 16.916 32.8133 17.156 32.7973 17.38C32.7813 17.588 32.7573 17.788 32.7253 17.98H22.1173V15.604H29.8213L29.1973 16.036C29.1973 15.044 28.9573 14.316 28.4773 13.852C28.0133 13.372 27.3733 13.132 26.5573 13.132C25.6133 13.132 24.8773 13.452 24.3493 14.092C23.8373 14.732 23.5813 15.692 23.5813 16.972C23.5813 18.22 23.8373 19.148 24.3493 19.756C24.8773 20.364 25.6613 20.668 26.7013 20.668C27.2773 20.668 27.7733 20.572 28.1893 20.38C28.6053 20.188 28.9173 19.876 29.1253 19.444H32.5093C32.1093 20.628 31.4213 21.564 30.4453 22.252C29.4853 22.924 28.2453 23.26 26.7253 23.26Z" fill="url(#paint1_linear_0_80)"/>
<path d="M41.4204 23.02L37.7964 17.644L32.5884 10.78H36.6204L39.8604 15.604L45.4524 23.02H41.4204ZM38.0844 15.412L41.3244 10.78H45.2604L39.7884 17.932L38.0844 15.412ZM39.4764 18.124L35.9964 23.02H32.0844L37.7724 15.604L39.4764 18.124Z" fill="url(#paint2_linear_0_80)"/>
<path d="M51.0113 23V20.12H55.3793C56.6273 20.12 57.6833 19.872 58.5473 19.376C59.4273 18.864 60.0913 18.168 60.5393 17.288C61.0033 16.408 61.2353 15.4 61.2353 14.264C61.2353 13.144 61.0113 12.16 60.5633 11.312C60.1153 10.464 59.4513 9.8 58.5713 9.32C57.7073 8.84 56.6433 8.6 55.3793 8.6H51.0833V5.72H55.3793C57.3153 5.72 59.0033 6.072 60.4433 6.776C61.8833 7.464 62.9953 8.456 63.7793 9.752C64.5793 11.032 64.9793 12.552 64.9793 14.312C64.9793 16.072 64.5793 17.608 63.7793 18.92C62.9793 20.216 61.8593 21.224 60.4193 21.944C58.9953 22.648 57.3233 23 55.4033 23H51.0113ZM48.7553 23V5.72H52.4513V23H48.7553ZM66.4159 23V10.76H69.9439V13.64H70.0159V23H66.4159ZM70.0159 16.616L69.7039 13.712C69.9919 12.672 70.4639 11.88 71.1199 11.336C71.7759 10.792 72.5919 10.52 73.5679 10.52C73.8719 10.52 74.0959 10.552 74.2399 10.616V13.976C74.1599 13.944 74.0479 13.928 73.9039 13.928C73.7599 13.912 73.5839 13.904 73.3759 13.904C72.2239 13.904 71.3759 14.112 70.8319 14.528C70.2879 14.928 70.0159 15.624 70.0159 16.616ZM79.1012 23.24C78.2372 23.24 77.4932 23.056 76.8692 22.688C76.2612 22.304 75.7972 21.8 75.4772 21.176C75.1572 20.536 74.9972 19.824 74.9972 19.04V10.76H78.5972V18.344C78.5972 19.016 78.7652 19.52 79.1012 19.856C79.4372 20.192 79.9092 20.36 80.5172 20.36C81.0612 20.36 81.5412 20.232 81.9572 19.976C82.3732 19.72 82.7012 19.368 82.9412 18.92C83.1972 18.456 83.3252 17.928 83.3252 17.336L83.6372 20.288C83.2372 21.168 82.6532 21.88 81.8852 22.424C81.1172 22.968 80.1892 23.24 79.1012 23.24ZM83.3972 23V20.12H83.3252V10.76H86.9252V23H83.3972ZM94.5925 28.16C92.8965 28.16 91.5125 27.8 90.4405 27.08C89.3845 26.36 88.7605 25.384 88.5685 24.152H91.9765C92.1045 24.456 92.3765 24.688 92.7925 24.848C93.2245 25.008 93.7685 25.088 94.4245 25.088C95.5125 25.088 96.3045 24.88 96.8005 24.464C97.2965 24.048 97.5445 23.4 97.5445 22.52V19.856L97.7365 19.904C97.5765 20.8 97.1125 21.512 96.3445 22.04C95.5765 22.552 94.6245 22.808 93.4885 22.808C92.4005 22.808 91.4485 22.56 90.6325 22.064C89.8325 21.552 89.2085 20.84 88.7605 19.928C88.3125 19.016 88.0885 17.944 88.0885 16.712C88.0885 15.464 88.3205 14.376 88.7845 13.448C89.2485 12.52 89.8965 11.8 90.7285 11.288C91.5765 10.776 92.5605 10.52 93.6805 10.52C94.8325 10.52 95.7685 10.792 96.4885 11.336C97.2245 11.88 97.6565 12.624 97.7845 13.568L97.6165 13.592V10.76H101.144V22.472C101.144 24.232 100.56 25.616 99.3925 26.624C98.2245 27.648 96.6245 28.16 94.5925 28.16ZM94.7365 20.048C95.5845 20.048 96.2725 19.76 96.8005 19.184C97.3285 18.592 97.5925 17.752 97.5925 16.664C97.5925 15.576 97.3205 14.744 96.7765 14.168C96.2485 13.576 95.5525 13.28 94.6885 13.28C93.8565 13.28 93.1685 13.576 92.6245 14.168C92.0965 14.76 91.8325 15.6 91.8325 16.688C91.8325 17.776 92.0965 18.608 92.6245 19.184C93.1685 19.76 93.8725 20.048 94.7365 20.048ZM108.247 23.24C106.455 23.24 105.031 22.88 103.975 22.16C102.919 21.44 102.343 20.448 102.247 19.184H105.463C105.543 19.728 105.815 20.144 106.279 20.432C106.759 20.704 107.415 20.84 108.247 20.84C108.999 20.84 109.543 20.736 109.879 20.528C110.231 20.304 110.407 19.992 110.407 19.592C110.407 19.288 110.303 19.056 110.095 18.896C109.903 18.72 109.543 18.576 109.015 18.464L107.047 18.056C105.591 17.752 104.519 17.296 103.831 16.688C103.143 16.064 102.799 15.264 102.799 14.288C102.799 13.104 103.255 12.184 104.167 11.528C105.079 10.856 106.351 10.52 107.983 10.52C109.599 10.52 110.887 10.848 111.847 11.504C112.807 12.144 113.335 13.04 113.431 14.192H110.215C110.151 13.776 109.927 13.464 109.543 13.256C109.159 13.032 108.615 12.92 107.911 12.92C107.271 12.92 106.791 13.016 106.471 13.208C106.167 13.384 106.015 13.64 106.015 13.976C106.015 14.264 106.143 14.496 106.399 14.672C106.655 14.832 107.079 14.976 107.671 15.104L109.879 15.56C111.111 15.816 112.039 16.296 112.663 17C113.303 17.688 113.623 18.504 113.623 19.448C113.623 20.648 113.151 21.584 112.207 22.256C111.279 22.912 109.959 23.24 108.247 23.24ZM120.438 23.264C118.87 23.264 117.702 22.888 116.934 22.136C116.182 21.368 115.806 20.208 115.806 18.656V8.024L119.406 6.68V18.776C119.406 19.32 119.558 19.728 119.862 20C120.166 20.272 120.638 20.408 121.278 20.408C121.518 20.408 121.742 20.384 121.95 20.336C122.158 20.288 122.366 20.232 122.574 20.168V22.904C122.366 23.016 122.07 23.104 121.686 23.168C121.318 23.232 120.902 23.264 120.438 23.264ZM113.526 13.496V10.76H122.574V13.496H113.526ZM129.397 23.24C128.053 23.24 126.869 22.976 125.845 22.448C124.837 21.904 124.045 21.152 123.469 20.192C122.909 19.216 122.629 18.096 122.629 16.832C122.629 15.568 122.909 14.464 123.469 13.52C124.045 12.576 124.837 11.84 125.845 11.312C126.869 10.784 128.053 10.52 129.397 10.52C130.757 10.52 131.941 10.784 132.949 11.312C133.973 11.84 134.765 12.576 135.325 13.52C135.885 14.464 136.165 15.568 136.165 16.832C136.165 18.096 135.877 19.216 135.301 20.192C134.741 21.152 133.949 21.904 132.925 22.448C131.917 22.976 130.741 23.24 129.397 23.24ZM129.397 20.408C129.957 20.408 130.461 20.264 130.909 19.976C131.373 19.688 131.741 19.28 132.013 18.752C132.285 18.208 132.421 17.56 132.421 16.808C132.421 15.704 132.125 14.856 131.533 14.264C130.957 13.656 130.245 13.352 129.397 13.352C128.549 13.352 127.829 13.656 127.237 14.264C126.661 14.872 126.373 15.72 126.373 16.808C126.373 17.56 126.509 18.208 126.781 18.752C127.053 19.28 127.413 19.688 127.861 19.976C128.325 20.264 128.837 20.408 129.397 20.408ZM137.354 23V10.76H140.882V13.64H140.954V23H137.354ZM140.954 16.616L140.642 13.712C140.93 12.672 141.402 11.88 142.058 11.336C142.714 10.792 143.53 10.52 144.506 10.52C144.81 10.52 145.034 10.552 145.178 10.616V13.976C145.098 13.944 144.986 13.928 144.842 13.928C144.698 13.912 144.522 13.904 144.314 13.904C143.162 13.904 142.314 14.112 141.77 14.528C141.226 14.928 140.954 15.624 140.954 16.616ZM151.769 23.24C150.409 23.24 149.225 22.976 148.217 22.448C147.209 21.904 146.425 21.152 145.865 20.192C145.321 19.232 145.049 18.128 145.049 16.88C145.049 15.616 145.321 14.512 145.865 13.568C146.425 12.608 147.201 11.864 148.193 11.336C149.185 10.792 150.337 10.52 151.649 10.52C152.913 10.52 154.009 10.776 154.937 11.288C155.865 11.8 156.585 12.512 157.097 13.424C157.609 14.336 157.865 15.408 157.865 16.64C157.865 16.896 157.857 17.136 157.841 17.36C157.825 17.568 157.801 17.768 157.769 17.96H147.161V15.584H154.865L154.241 16.016C154.241 15.024 154.001 14.296 153.521 13.832C153.057 13.352 152.417 13.112 151.601 13.112C150.657 13.112 149.921 13.432 149.393 14.072C148.881 14.712 148.625 15.672 148.625 16.952C148.625 18.2 148.881 19.128 149.393 19.736C149.921 20.344 150.705 20.648 151.745 20.648C152.321 20.648 152.817 20.552 153.233 20.36C153.649 20.168 153.961 19.856 154.169 19.424H157.553C157.153 20.608 156.465 21.544 155.489 22.232C154.529 22.904 153.289 23.24 151.769 23.24Z" fill="#131313"/>
<defs>
<linearGradient id="paint0_linear_0_80" x1="0" y1="14.5" x2="45.4524" y2="14.5" gradientUnits="userSpaceOnUse">
<stop stop-color="#760DDF"/>
<stop offset="1" stop-color="#B122C2"/>
</linearGradient>
<linearGradient id="paint1_linear_0_80" x1="0" y1="14.5" x2="45.4524" y2="14.5" gradientUnits="userSpaceOnUse">
<stop stop-color="#760DDF"/>
<stop offset="1" stop-color="#B122C2"/>
</linearGradient>
<linearGradient id="paint2_linear_0_80" x1="0" y1="14.5" x2="45.4524" y2="14.5" gradientUnits="userSpaceOnUse">
<stop stop-color="#760DDF"/>
<stop offset="1" stop-color="#B122C2"/>
</linearGradient>
</defs>
</svg>
