<svg width="28" height="22" viewBox="0 0 28 22" fill="none" xmlns="http://www.w3.org/2000/svg">
<path d="M7.4375 10.375C8.30044 10.375 9 9.67544 9 8.8125C9 7.94956 8.30044 7.25 7.4375 7.25C6.57456 7.25 5.875 7.94956 5.875 8.8125C5.875 9.67544 6.57456 10.375 7.4375 10.375Z" fill="#1673FF"/>
<path d="M16.8125 8.8125H22.4375V11.3125" stroke="#1673FF" stroke-width="2" stroke-miterlimit="10" stroke-linecap="round" stroke-linejoin="round"/>
<path d="M7.4375 1.9375H20.5625C23.6694 1.9375 26.1875 4.45562 26.1875 7.5625V18.1875C26.1875 19.2231 25.3481 20.0625 24.3125 20.0625H13.0625" stroke="#1673FF" stroke-width="2" stroke-miterlimit="10" stroke-linejoin="round"/>
<path d="M1.8125 7.56274C1.8125 4.33212 4.53562 1.73774 7.81187 1.94962C10.8019 2.14337 13.0625 4.75899 13.0625 7.75524V20.0627H3.6875C2.65188 20.0627 1.8125 19.2234 1.8125 18.1877V7.56274Z" stroke="#1673FF" stroke-width="2" stroke-miterlimit="10" stroke-linejoin="round"/>
</svg>
