<svg width="50" height="50" viewBox="0 0 50 50" fill="none" xmlns="http://www.w3.org/2000/svg">
<rect x="0.5" y="0.5" width="49" height="49" rx="11.5" fill="#EFF6FF" stroke="#257EFF"/>
<path d="M25.5762 32.3333L23.0102 34.8993C20.4582 37.4513 16.3195 37.4513 13.7675 34.8993C11.2155 32.3473 11.2155 28.2086 13.7675 25.6566L24.3235 15.1006C26.8755 12.5486 31.0142 12.5486 33.5662 15.1006C36.1182 17.6526 36.1182 21.7913 33.5662 24.3433L32.9548 24.9546" fill="#BFDBFE"/>
<path d="M25.5762 32.3333L23.0102 34.8993C20.4582 37.4513 16.3195 37.4513 13.7675 34.8993C11.2155 32.3473 11.2155 28.2086 13.7675 25.6566L24.3235 15.1006C26.8755 12.5486 31.0142 12.5486 33.5662 15.1006C36.1182 17.6526 36.1182 21.7913 33.5662 24.3433L32.9548 24.9546" stroke="#257EFF" stroke-miterlimit="10" stroke-linecap="round" stroke-linejoin="round"/>
<path d="M19.9551 20.6213L26.9864 27.6527" stroke="#257EFF" stroke-miterlimit="10" stroke-linecap="round" stroke-linejoin="round"/>
<path d="M31.6667 36.6667C34.7963 36.6667 37.3333 34.1297 37.3333 31C37.3333 27.8704 34.7963 25.3334 31.6667 25.3334C28.5371 25.3334 26 27.8704 26 31C26 34.1297 28.5371 36.6667 31.6667 36.6667Z" fill="#BFDBFE" stroke="#1673FF" stroke-miterlimit="10"/>
<path d="M33.3333 29.3334L30 32.6667" stroke="#1673FF" stroke-miterlimit="10" stroke-linecap="round" stroke-linejoin="round"/>
</svg>
