<svg width="230" height="38" viewBox="0 0 230 38" fill="none" xmlns="http://www.w3.org/2000/svg">
<path fill-rule="evenodd" clip-rule="evenodd" d="M16.5387 2.39556C17.5142 -0.194599 21.1781 -0.194599 22.1537 2.39557L25.0232 10.0147C25.4457 11.1364 26.4953 11.8989 27.6926 11.9541L35.8256 12.3288C38.5904 12.4562 39.7226 15.9408 37.5607 17.6689L31.2013 22.7525C30.265 23.5009 29.8641 24.7348 30.1816 25.8906L32.3385 33.7413C33.0717 36.4101 30.1076 38.5637 27.7959 37.0416L20.996 32.5644C19.9949 31.9052 18.6975 31.9052 17.6964 32.5644L10.8965 37.0416C8.58479 38.5637 5.62063 36.4101 6.35387 33.7413L8.51073 25.8906C8.82827 24.7348 8.42736 23.5009 7.4911 22.7525L1.13166 17.6689C-1.03028 15.9408 0.101927 12.4562 2.86677 12.3288L10.9997 11.9541C12.1971 11.8989 13.2467 11.1364 13.6691 10.0147L16.5387 2.39556ZM64.3582 2.39556C65.3337 -0.194599 68.9976 -0.194599 69.9732 2.39557L72.8427 10.0147C73.2652 11.1364 74.3148 11.8989 75.5122 11.9541L83.6451 12.3288C86.4099 12.4562 87.5421 15.9408 85.3802 17.6689L79.0208 22.7525C78.0845 23.5009 77.6836 24.7348 78.0011 25.8906L80.158 33.7413C80.8912 36.4101 77.9271 38.5637 75.6154 37.0416L68.8155 32.5644C67.8144 31.9052 66.517 31.9052 65.5159 32.5644L58.716 37.0416C56.4043 38.5637 53.4401 36.4101 54.1734 33.7413L56.3302 25.8906C56.6478 24.7348 56.2469 23.5009 55.3106 22.7525L48.9512 17.6689C46.7892 15.9408 47.9214 12.4562 50.6863 12.3288L58.8192 11.9541C60.0166 11.8989 61.0662 11.1364 61.4886 10.0147L64.3582 2.39556ZM117.794 2.39557C116.818 -0.194599 113.154 -0.194599 112.179 2.39556L109.309 10.0147C108.887 11.1364 107.837 11.8989 106.64 11.9541L98.5068 12.3288C95.7419 12.4562 94.6097 15.9408 96.7716 17.6689L103.131 22.7525C104.067 23.5009 104.468 24.7348 104.151 25.8906L101.994 33.7413C101.261 36.4101 104.225 38.5637 106.536 37.0416L113.336 32.5644C114.337 31.9052 115.635 31.9052 116.636 32.5644L123.436 37.0416C125.748 38.5637 128.712 36.4101 127.978 33.7413L125.822 25.8906C125.504 24.7348 125.905 23.5009 126.841 22.7525L133.201 17.6689C135.363 15.9408 134.23 12.4562 131.466 12.3288L123.333 11.9541C122.135 11.8989 121.086 11.1364 120.663 10.0147L117.794 2.39557ZM159.998 2.39556C160.973 -0.194599 164.637 -0.194599 165.613 2.39557L168.482 10.0147C168.905 11.1364 169.954 11.8989 171.152 11.9541L179.285 12.3288C182.049 12.4562 183.182 15.9408 181.02 17.6689L174.66 22.7525C173.724 23.5009 173.323 24.7348 173.641 25.8906L175.798 33.7413C176.531 36.4101 173.567 38.5637 171.255 37.0416L164.455 32.5644C163.454 31.9052 162.157 31.9052 161.155 32.5644L154.355 37.0416C152.044 38.5637 149.08 36.4101 149.813 33.7413L151.97 25.8906C152.287 24.7348 151.886 23.5009 150.95 22.7525L144.591 17.6689C142.429 15.9408 143.561 12.4562 146.326 12.3288L154.459 11.9541C155.656 11.8989 156.706 11.1364 157.128 10.0147L159.998 2.39556ZM213.432 2.39557C212.457 -0.194599 208.793 -0.194599 207.817 2.39556L204.948 10.0147C204.525 11.1364 203.476 11.8989 202.278 11.9541L194.145 12.3288C191.38 12.4562 190.248 15.9408 192.41 17.6689L198.77 22.7525C199.706 23.5009 200.107 24.7348 199.789 25.8906L197.632 33.7413C196.899 36.4101 199.863 38.5637 202.175 37.0416L208.975 32.5644C209.976 31.9052 211.273 31.9052 212.274 32.5644L219.074 37.0416C221.386 38.5637 224.35 36.4101 223.617 33.7413L221.46 25.8906C221.143 24.7348 221.544 23.5009 222.48 22.7525L228.839 17.6689C231.001 15.9408 229.869 12.4562 227.104 12.3288L218.971 11.9541C217.774 11.8989 216.724 11.1364 216.302 10.0147L213.432 2.39557Z" fill="url(#paint0_linear_0_70)"/>
<defs>
<linearGradient id="paint0_linear_0_70" x1="0" y1="19" x2="229.971" y2="19" gradientUnits="userSpaceOnUse">
<stop stop-color="#F5980C"/>
<stop offset="0.92" stop-color="#F5980C"/>
<stop offset="0.92" stop-color="#E4E4E4"/>
</linearGradient>
</defs>
</svg>
